<mxfile host="app.diagrams.net" modified="2023-07-06T15:36:40.038Z" agent="Mozilla/5.0 (Windows NT 10.0; Win64; x64) AppleWebKit/537.36 (KHTML, like Gecko) Chrome/114.0.0.0 Safari/537.36" version="21.6.1" etag="T2nBbZqK6CaC8MJa6Dtq" type="github">
  <diagram name="第 1 页" id="1t2gc7MpGYeYOEJdUv0z">
    <mxGraphModel>
      <root>
        <mxCell id="0" />
        <mxCell id="1" parent="0" />
      </root>
    </mxGraphModel>
  </diagram>
</mxfile>
